<svg width="47" height="47" viewBox="0 0 47 47" fill="none" xmlns="http://www.w3.org/2000/svg">
<path d="M31.3333 0H15V2.97468H10.2436V5.35443H7.23077V8.32911H4.82051V10.7089H2.41026V16.0633H0V31.5316H2.41026V36.8861H4.82051V39.2658H7.23077V42.2405H10.2436V44.6203H15.6667V47H31.9359V44.6203H36.7564V41.0506H39.1667V39.2658H42.1795V36.8861H44.5897V31.5316H47V16.0633H44.5897V10.7089H42.1795V8.32911H39.7692V5.35443H36.7564V2.97468H31.3333V0Z" fill="#FF2B2B"/>
<path d="M5 29.0816V17.6939H7.5V12H10.625V15.1633H13.125V17.6939H15.625V20.2245H18.75V23.3878H21.25V26.551H23.75V29.0816H26.875V31.6122H30V34.7755H32.5V37.3061H35V39.8367H31.875V43H18.75V39.8367H13.125V37.3061H10.625V34.1429H8.125V29.0816H5Z" fill="white"/>
<path d="M5 29.0816V17.6939H7.5V12H10.625V15.1633H13.125V17.6939H15.625V20.2245H18.75V23.3878H21.25V26.551H23.75V29.0816H26.875V31.6122H30V34.7755H32.5V37.3061H35V39.8367H31.875V43H18.75V39.8367H13.125V37.3061H10.625V34.1429H8.125V29.0816H5Z" fill="white"/>
<path d="M42 17.9184V29.3061H39.5833V35H36.5625V31.8367H34.1458V29.3061H31.7292V26.7755H28.7083V23.6122H26.2917V20.449H23.875V17.9184H20.8542V15.3878H17.8333V12.2245H15.4167V9.69388H13V7.16327H15.4167V4H28.7083V7.16327H34.1458V9.69388H36.5625V12.8571H38.9792V17.9184H42Z" fill="white"/>
<path d="M42 17.9184V29.3061H39.5833V35H36.5625V31.8367H34.1458V29.3061H31.7292V26.7755H28.7083V23.6122H26.2917V20.449H23.875V17.9184H20.8542V15.3878H17.8333V12.2245H15.4167V9.69388H13V7.16327H15.4167V4H28.7083V7.16327H34.1458V9.69388H36.5625V12.8571H38.9792V17.9184H42Z" fill="white"/>
</svg>
