<svg width="43" height="58" viewBox="0 0 43 58" fill="none" xmlns="http://www.w3.org/2000/svg">
<path fill-rule="evenodd" clip-rule="evenodd" d="M10 28V2.5H12.5V35.5H10V30.5H7.5V28H10ZM2.5 33H0V25.5H7.5V28H2.5V33ZM5 35.5H2.5V33H5V35.5ZM7.5 41V35.5H5V41H7.5ZM10 41H7.5V46H10V50.5H12.5V58H38V50.5H40.5V43H43V22.5H40.5V20H38V17.5H33V15H25.5V12.5H20V2.5H17.5V0H12.5V2.5H17.5V27.5H20V15H25.5V27.5H28V17.5H33V27.5H35.5V20H38V22.5H40.5V43H38V50.5H35.5V55.5H15.5V50.5H12.5V46H10V41Z" fill="#0F1624"/>
<path d="M17.5 2.5H12.5V50.5H15.5V55.5H35.5V50.5H38V43H40.5V22.5H38V20H35.5V27.5H33V17.5H28V27.5H25.5V15H20V27.5H17.5V2.5Z" fill="white"/>
<path d="M2.5 28H7.5V30.5H10V41H7.5V35.5H5V33H2.5V28Z" fill="white"/>
<path d="M12.5 35.5H10V41H12.5V35.5Z" fill="white"/>
<path d="M12.5 46V41H10V46H12.5Z" fill="white"/>
<path d="M13.5 35.5H9V41H10V46H13.5V35.5Z" fill="white"/>
</svg>
